<mxfile host="app.diagrams.net" modified="2021-04-27T08:53:26.627Z" agent="5.0 (Windows NT 10.0; Win64; x64) AppleWebKit/537.36 (KHTML, like Gecko) Chrome/90.0.4430.85 Safari/537.36" etag="dlZfTBbFmiW4fnLVmVNU" version="14.6.6" type="github" pages="2">
  <diagram id="C5RBs43oDa-KdzZeNtuy" name="Flow diagram">
    <mxGraphModel dx="1662" dy="794" grid="1" gridSize="10" guides="1" tooltips="1" connect="1" arrows="1" fold="1" page="1" pageScale="1" pageWidth="827" pageHeight="1169" math="0" shadow="0">
      <root>
        <mxCell id="WIyWlLk6GJQsqaUBKTNV-0" />
        <mxCell id="WIyWlLk6GJQsqaUBKTNV-1" parent="WIyWlLk6GJQsqaUBKTNV-0" />
        <mxCell id="ve32aK75xmh0L7JHemRm-0" style="edgeStyle=orthogonalEdgeStyle;rounded=0;orthogonalLoop=1;jettySize=auto;html=1;entryX=0.5;entryY=0;entryDx=0;entryDy=0;" parent="WIyWlLk6GJQsqaUBKTNV-1" source="WIyWlLk6GJQsqaUBKTNV-3" target="ve32aK75xmh0L7JHemRm-1" edge="1">
          <mxGeometry relative="1" as="geometry">
            <mxPoint x="1170" y="100" as="targetPoint" />
            <Array as="points">
              <mxPoint x="135" y="150" />
            </Array>
          </mxGeometry>
        </mxCell>
        <mxCell id="WIyWlLk6GJQsqaUBKTNV-3" value="Application" style="rounded=1;whiteSpace=wrap;html=1;fontSize=14;glass=0;strokeWidth=1;shadow=0;" parent="WIyWlLk6GJQsqaUBKTNV-1" vertex="1">
          <mxGeometry x="60" y="60" width="150" height="60" as="geometry" />
        </mxCell>
        <mxCell id="ve32aK75xmh0L7JHemRm-15" style="edgeStyle=orthogonalEdgeStyle;rounded=0;orthogonalLoop=1;jettySize=auto;html=1;" parent="WIyWlLk6GJQsqaUBKTNV-1" source="WIyWlLk6GJQsqaUBKTNV-6" target="ve32aK75xmh0L7JHemRm-11" edge="1">
          <mxGeometry relative="1" as="geometry" />
        </mxCell>
        <mxCell id="WIyWlLk6GJQsqaUBKTNV-6" value="/create-company" style="rhombus;whiteSpace=wrap;html=1;shadow=0;fontFamily=Helvetica;fontSize=14;align=center;strokeWidth=1;spacing=6;spacingTop=-4;rounded=0;" parent="WIyWlLk6GJQsqaUBKTNV-1" vertex="1">
          <mxGeometry x="370" y="65" width="160" height="80" as="geometry" />
        </mxCell>
        <mxCell id="WIyWlLk6GJQsqaUBKTNV-7" value="CreateCompanyComponent" style="rounded=1;whiteSpace=wrap;html=1;fontSize=14;glass=0;strokeWidth=1;shadow=0;" parent="WIyWlLk6GJQsqaUBKTNV-1" vertex="1">
          <mxGeometry x="925" y="70" width="210" height="70" as="geometry" />
        </mxCell>
        <mxCell id="ve32aK75xmh0L7JHemRm-3" style="edgeStyle=orthogonalEdgeStyle;rounded=0;orthogonalLoop=1;jettySize=auto;html=1;" parent="WIyWlLk6GJQsqaUBKTNV-1" source="ve32aK75xmh0L7JHemRm-1" target="ve32aK75xmh0L7JHemRm-4" edge="1">
          <mxGeometry relative="1" as="geometry">
            <mxPoint x="360" y="250" as="targetPoint" />
          </mxGeometry>
        </mxCell>
        <mxCell id="ve32aK75xmh0L7JHemRm-1" value="AppModule" style="rounded=1;whiteSpace=wrap;html=1;fontSize=14;" parent="WIyWlLk6GJQsqaUBKTNV-1" vertex="1">
          <mxGeometry x="75" y="225" width="120" height="60" as="geometry" />
        </mxCell>
        <mxCell id="ve32aK75xmh0L7JHemRm-6" style="edgeStyle=orthogonalEdgeStyle;rounded=0;orthogonalLoop=1;jettySize=auto;html=1;" parent="WIyWlLk6GJQsqaUBKTNV-1" source="ve32aK75xmh0L7JHemRm-4" target="ve32aK75xmh0L7JHemRm-7" edge="1">
          <mxGeometry relative="1" as="geometry">
            <mxPoint x="360" y="410" as="targetPoint" />
          </mxGeometry>
        </mxCell>
        <mxCell id="ve32aK75xmh0L7JHemRm-4" value="AppComponent" style="rounded=1;whiteSpace=wrap;html=1;fontSize=14;" parent="WIyWlLk6GJQsqaUBKTNV-1" vertex="1">
          <mxGeometry x="75" y="430" width="120" height="60" as="geometry" />
        </mxCell>
        <mxCell id="ve32aK75xmh0L7JHemRm-18" style="edgeStyle=orthogonalEdgeStyle;rounded=0;orthogonalLoop=1;jettySize=auto;html=1;entryX=0;entryY=0.5;entryDx=0;entryDy=0;" parent="WIyWlLk6GJQsqaUBKTNV-1" source="ve32aK75xmh0L7JHemRm-7" target="WIyWlLk6GJQsqaUBKTNV-6" edge="1">
          <mxGeometry relative="1" as="geometry" />
        </mxCell>
        <mxCell id="ve32aK75xmh0L7JHemRm-39" style="edgeStyle=orthogonalEdgeStyle;rounded=0;jumpSize=6;orthogonalLoop=1;jettySize=auto;html=1;entryX=0;entryY=0.5;entryDx=0;entryDy=0;fontSize=14;startArrow=none;startFill=0;endArrow=classic;endFill=1;endSize=6;strokeWidth=1;" parent="WIyWlLk6GJQsqaUBKTNV-1" source="ve32aK75xmh0L7JHemRm-7" target="ve32aK75xmh0L7JHemRm-22" edge="1">
          <mxGeometry relative="1" as="geometry" />
        </mxCell>
        <mxCell id="ve32aK75xmh0L7JHemRm-40" style="edgeStyle=orthogonalEdgeStyle;rounded=0;jumpSize=6;orthogonalLoop=1;jettySize=auto;html=1;entryX=0;entryY=0.5;entryDx=0;entryDy=0;fontSize=14;startArrow=none;startFill=0;endArrow=classic;endFill=1;endSize=6;strokeWidth=1;" parent="WIyWlLk6GJQsqaUBKTNV-1" source="ve32aK75xmh0L7JHemRm-7" target="ve32aK75xmh0L7JHemRm-27" edge="1">
          <mxGeometry relative="1" as="geometry" />
        </mxCell>
        <mxCell id="ve32aK75xmh0L7JHemRm-7" value="&amp;lt;router-outlet/&amp;gt;" style="rounded=1;whiteSpace=wrap;html=1;fontSize=14;" parent="WIyWlLk6GJQsqaUBKTNV-1" vertex="1">
          <mxGeometry x="75" y="595" width="120" height="60" as="geometry" />
        </mxCell>
        <mxCell id="ve32aK75xmh0L7JHemRm-16" style="edgeStyle=orthogonalEdgeStyle;rounded=0;orthogonalLoop=1;jettySize=auto;html=1;" parent="WIyWlLk6GJQsqaUBKTNV-1" source="ve32aK75xmh0L7JHemRm-11" target="WIyWlLk6GJQsqaUBKTNV-7" edge="1">
          <mxGeometry relative="1" as="geometry" />
        </mxCell>
        <mxCell id="ve32aK75xmh0L7JHemRm-11" value="CreateCompanyModule" style="rounded=1;whiteSpace=wrap;html=1;fontSize=14;" parent="WIyWlLk6GJQsqaUBKTNV-1" vertex="1">
          <mxGeometry x="620" y="70" width="170" height="70" as="geometry" />
        </mxCell>
        <mxCell id="ve32aK75xmh0L7JHemRm-21" style="edgeStyle=orthogonalEdgeStyle;rounded=0;orthogonalLoop=1;jettySize=auto;html=1;" parent="WIyWlLk6GJQsqaUBKTNV-1" source="ve32aK75xmh0L7JHemRm-22" target="ve32aK75xmh0L7JHemRm-25" edge="1">
          <mxGeometry relative="1" as="geometry" />
        </mxCell>
        <mxCell id="ve32aK75xmh0L7JHemRm-22" value="/company" style="rhombus;whiteSpace=wrap;html=1;shadow=0;fontFamily=Helvetica;fontSize=14;align=center;strokeWidth=1;spacing=6;spacingTop=-4;rounded=0;" parent="WIyWlLk6GJQsqaUBKTNV-1" vertex="1">
          <mxGeometry x="370" y="215" width="160" height="80" as="geometry" />
        </mxCell>
        <mxCell id="ve32aK75xmh0L7JHemRm-23" value="CompanyViewComponent" style="rounded=1;whiteSpace=wrap;html=1;fontSize=14;glass=0;strokeWidth=1;shadow=0;" parent="WIyWlLk6GJQsqaUBKTNV-1" vertex="1">
          <mxGeometry x="931" y="220" width="210" height="70" as="geometry" />
        </mxCell>
        <mxCell id="ve32aK75xmh0L7JHemRm-24" style="edgeStyle=orthogonalEdgeStyle;rounded=0;orthogonalLoop=1;jettySize=auto;html=1;" parent="WIyWlLk6GJQsqaUBKTNV-1" source="ve32aK75xmh0L7JHemRm-25" target="ve32aK75xmh0L7JHemRm-23" edge="1">
          <mxGeometry relative="1" as="geometry" />
        </mxCell>
        <mxCell id="ve32aK75xmh0L7JHemRm-25" value="CompanyViewModule" style="rounded=1;whiteSpace=wrap;html=1;fontSize=14;" parent="WIyWlLk6GJQsqaUBKTNV-1" vertex="1">
          <mxGeometry x="620" y="220" width="170" height="70" as="geometry" />
        </mxCell>
        <mxCell id="ve32aK75xmh0L7JHemRm-43" style="edgeStyle=orthogonalEdgeStyle;rounded=0;jumpSize=6;orthogonalLoop=1;jettySize=auto;html=1;fontSize=14;startArrow=none;startFill=0;endArrow=classic;endFill=1;endSize=6;strokeWidth=1;" parent="WIyWlLk6GJQsqaUBKTNV-1" source="ve32aK75xmh0L7JHemRm-27" target="ve32aK75xmh0L7JHemRm-29" edge="1">
          <mxGeometry relative="1" as="geometry" />
        </mxCell>
        <mxCell id="ve32aK75xmh0L7JHemRm-27" value="/companies" style="rhombus;whiteSpace=wrap;html=1;shadow=0;fontFamily=Helvetica;fontSize=14;align=center;strokeWidth=1;spacing=6;spacingTop=-4;rounded=0;" parent="WIyWlLk6GJQsqaUBKTNV-1" vertex="1">
          <mxGeometry x="370" y="350" width="160" height="80" as="geometry" />
        </mxCell>
        <mxCell id="ve32aK75xmh0L7JHemRm-45" style="edgeStyle=orthogonalEdgeStyle;rounded=0;jumpSize=6;orthogonalLoop=1;jettySize=auto;html=1;fontSize=14;startArrow=none;startFill=0;endArrow=classic;endFill=1;endSize=6;strokeWidth=1;" parent="WIyWlLk6GJQsqaUBKTNV-1" source="ve32aK75xmh0L7JHemRm-29" edge="1">
          <mxGeometry relative="1" as="geometry">
            <mxPoint x="930" y="389.9999999999998" as="targetPoint" />
          </mxGeometry>
        </mxCell>
        <mxCell id="ve32aK75xmh0L7JHemRm-29" value="CompanyModule" style="rounded=1;whiteSpace=wrap;html=1;fontSize=14;" parent="WIyWlLk6GJQsqaUBKTNV-1" vertex="1">
          <mxGeometry x="620" y="355" width="170" height="70" as="geometry" />
        </mxCell>
        <mxCell id="ve32aK75xmh0L7JHemRm-44" value="CompanyListComponent" style="rounded=1;whiteSpace=wrap;html=1;fontSize=14;glass=0;strokeWidth=1;shadow=0;" parent="WIyWlLk6GJQsqaUBKTNV-1" vertex="1">
          <mxGeometry x="931" y="355" width="210" height="70" as="geometry" />
        </mxCell>
      </root>
    </mxGraphModel>
  </diagram>
  <diagram id="N0LPFg7Xgm0LAmaTHY5I" name="Class Diagram">
    <mxGraphModel dx="3973" dy="1380" grid="1" gridSize="10" guides="1" tooltips="1" connect="1" arrows="1" fold="1" page="1" pageScale="1" pageWidth="850" pageHeight="1100" math="0" shadow="0">
      <root>
        <mxCell id="qydygmRBUWw_LVg6zkOr-0" />
        <mxCell id="qydygmRBUWw_LVg6zkOr-1" parent="qydygmRBUWw_LVg6zkOr-0" />
        <mxCell id="B1F1coWtEtCeFV_Itmko-29" style="edgeStyle=orthogonalEdgeStyle;rounded=0;orthogonalLoop=1;jettySize=auto;html=1;exitX=1;exitY=0.5;exitDx=0;exitDy=0;fontSize=14;" edge="1" parent="qydygmRBUWw_LVg6zkOr-1" source="B1F1coWtEtCeFV_Itmko-0" target="B1F1coWtEtCeFV_Itmko-28">
          <mxGeometry relative="1" as="geometry" />
        </mxCell>
        <mxCell id="B1F1coWtEtCeFV_Itmko-0" value="AppModule" style="swimlane;fontSize=14;" vertex="1" parent="qydygmRBUWw_LVg6zkOr-1">
          <mxGeometry x="-90" y="770" width="330" height="350" as="geometry" />
        </mxCell>
        <mxCell id="IQ5l-Bao1tqEhNfitBUV-22" value="AppComponent" style="swimlane;rounded=0;shadow=0;fontSize=14;strokeColor=#006658;fillColor=#21C0A5;html=1;fontColor=#5C5C5C;" parent="B1F1coWtEtCeFV_Itmko-0" vertex="1">
          <mxGeometry x="65" y="80" width="200" height="200" as="geometry">
            <mxRectangle x="90" y="30" width="190" height="23" as="alternateBounds" />
          </mxGeometry>
        </mxCell>
        <mxCell id="IQ5l-Bao1tqEhNfitBUV-23" value="AppUpdateService&#xa;FaviconsService&#xa;ZonarUiAnalyticsService&#xa;PreviousRouteService&#xa;I18nService&#xa;TranslateService&#xa;Translations&#xa;Router" style="text;html=1;strokeColor=none;fillColor=none;align=left;verticalAlign=middle;whiteSpace=wrap;rounded=0;shadow=0;fontSize=14;labelPosition=center;verticalLabelPosition=middle;fontColor=#5C5C5C;" parent="IQ5l-Bao1tqEhNfitBUV-22" vertex="1">
          <mxGeometry x="10" y="29" width="180" height="160" as="geometry" />
        </mxCell>
        <mxCell id="B1F1coWtEtCeFV_Itmko-42" value="import" style="edgeStyle=orthogonalEdgeStyle;rounded=0;orthogonalLoop=1;jettySize=auto;html=1;fontSize=14;endArrow=classic;endFill=1;entryX=0.5;entryY=1;entryDx=0;entryDy=0;" edge="1" parent="qydygmRBUWw_LVg6zkOr-1" source="B1F1coWtEtCeFV_Itmko-2" target="B1F1coWtEtCeFV_Itmko-0">
          <mxGeometry relative="1" as="geometry">
            <mxPoint x="80" y="1140" as="targetPoint" />
          </mxGeometry>
        </mxCell>
        <mxCell id="B1F1coWtEtCeFV_Itmko-2" value="SharedModule" style="swimlane;fontSize=14;" vertex="1" parent="qydygmRBUWw_LVg6zkOr-1">
          <mxGeometry x="-90" y="1220" width="330" height="350" as="geometry" />
        </mxCell>
        <mxCell id="IQ5l-Bao1tqEhNfitBUV-2" value="NotificationComponent" style="swimlane;rounded=0;shadow=0;fontSize=14;strokeColor=#006658;fillColor=#21C0A5;html=1;fontColor=#5C5C5C;" parent="B1F1coWtEtCeFV_Itmko-2" vertex="1">
          <mxGeometry x="65" y="70" width="200" height="200" as="geometry">
            <mxRectangle x="90" y="30" width="190" height="23" as="alternateBounds" />
          </mxGeometry>
        </mxCell>
        <mxCell id="IQ5l-Bao1tqEhNfitBUV-9" value="MatSnackBarRef&#xa;MAT_SNACK_BAR_DATA" style="text;html=1;strokeColor=none;fillColor=none;align=left;verticalAlign=middle;whiteSpace=wrap;rounded=0;shadow=0;fontSize=14;labelPosition=center;verticalLabelPosition=middle;fontColor=#5C5C5C;" parent="IQ5l-Bao1tqEhNfitBUV-2" vertex="1">
          <mxGeometry x="10" y="29" width="180" height="160" as="geometry" />
        </mxCell>
        <mxCell id="B1F1coWtEtCeFV_Itmko-9" value="CompanyModule" style="swimlane;fontSize=14;" vertex="1" parent="qydygmRBUWw_LVg6zkOr-1">
          <mxGeometry x="630" y="770" width="330" height="350" as="geometry" />
        </mxCell>
        <mxCell id="IQ5l-Bao1tqEhNfitBUV-20" value="CompanyListComponent" style="swimlane;rounded=0;shadow=0;fontSize=14;strokeColor=#006658;fillColor=#21C0A5;html=1;fontColor=#5C5C5C;" parent="B1F1coWtEtCeFV_Itmko-9" vertex="1">
          <mxGeometry x="65" y="75" width="200" height="200" as="geometry">
            <mxRectangle x="90" y="30" width="190" height="23" as="alternateBounds" />
          </mxGeometry>
        </mxCell>
        <mxCell id="IQ5l-Bao1tqEhNfitBUV-21" value="CoreCompanyApiService&#xa;AuthService&#xa;Router&#xa;I18nService&#xa;TranslateService&#xa;Translations" style="text;html=1;strokeColor=none;fillColor=none;align=left;verticalAlign=middle;whiteSpace=wrap;rounded=0;shadow=0;fontSize=14;labelPosition=center;verticalLabelPosition=middle;fontColor=#5C5C5C;" parent="IQ5l-Bao1tqEhNfitBUV-20" vertex="1">
          <mxGeometry x="10" y="29" width="180" height="160" as="geometry" />
        </mxCell>
        <mxCell id="B1F1coWtEtCeFV_Itmko-12" value="CompanyViewModule" style="swimlane;fontSize=14;" vertex="1" parent="qydygmRBUWw_LVg6zkOr-1">
          <mxGeometry x="640" y="1220" width="710" height="600" as="geometry" />
        </mxCell>
        <mxCell id="IQ5l-Bao1tqEhNfitBUV-12" value="CompanyViewComponent" style="swimlane;rounded=0;shadow=0;fontSize=14;strokeColor=#006658;fillColor=#21C0A5;html=1;fontColor=#5C5C5C;" parent="B1F1coWtEtCeFV_Itmko-12" vertex="1">
          <mxGeometry x="50" y="89" width="200" height="200" as="geometry">
            <mxRectangle x="90" y="30" width="190" height="23" as="alternateBounds" />
          </mxGeometry>
        </mxCell>
        <mxCell id="IQ5l-Bao1tqEhNfitBUV-13" value="ActivatedRoute,&#xa;Store&lt;CompanyState&gt;,&#xa;TranslateService,&#xa;Translations,&#xa;I18nService," style="text;html=1;strokeColor=none;fillColor=none;align=left;verticalAlign=middle;whiteSpace=wrap;rounded=0;shadow=0;fontSize=14;labelPosition=center;verticalLabelPosition=middle;fontColor=#5C5C5C;" parent="IQ5l-Bao1tqEhNfitBUV-12" vertex="1">
          <mxGeometry x="10" y="29" width="180" height="160" as="geometry" />
        </mxCell>
        <mxCell id="B1F1coWtEtCeFV_Itmko-39" style="edgeStyle=orthogonalEdgeStyle;rounded=0;orthogonalLoop=1;jettySize=auto;html=1;entryX=1;entryY=0.5;entryDx=0;entryDy=0;fontSize=14;endArrow=block;endFill=0;" edge="1" parent="B1F1coWtEtCeFV_Itmko-12" source="IQ5l-Bao1tqEhNfitBUV-16" target="IQ5l-Bao1tqEhNfitBUV-12">
          <mxGeometry relative="1" as="geometry" />
        </mxCell>
        <mxCell id="IQ5l-Bao1tqEhNfitBUV-16" value="AccountListComponent" style="swimlane;rounded=0;shadow=0;fontSize=14;strokeColor=#006658;fillColor=#21C0A5;html=1;fontColor=#5C5C5C;" parent="B1F1coWtEtCeFV_Itmko-12" vertex="1">
          <mxGeometry x="465" y="89" width="200" height="200" as="geometry">
            <mxRectangle x="90" y="30" width="190" height="23" as="alternateBounds" />
          </mxGeometry>
        </mxCell>
        <mxCell id="IQ5l-Bao1tqEhNfitBUV-17" value="Store&lt;CompanyState&gt;,&#xa;CoreCompanyApiService,&#xa;MatDialog,&#xa;NotificationService,&#xa;TranslateService,&#xa;Translations" style="text;html=1;strokeColor=none;fillColor=none;align=left;verticalAlign=middle;whiteSpace=wrap;rounded=0;shadow=0;fontSize=14;labelPosition=center;verticalLabelPosition=middle;fontColor=#5C5C5C;" parent="IQ5l-Bao1tqEhNfitBUV-16" vertex="1">
          <mxGeometry x="10" y="29" width="180" height="160" as="geometry" />
        </mxCell>
        <mxCell id="B1F1coWtEtCeFV_Itmko-41" value="action click" style="edgeStyle=orthogonalEdgeStyle;rounded=0;orthogonalLoop=1;jettySize=auto;html=1;entryX=0.5;entryY=1;entryDx=0;entryDy=0;fontSize=14;exitX=1;exitY=0.5;exitDx=0;exitDy=0;" edge="1" parent="B1F1coWtEtCeFV_Itmko-12" source="IQ5l-Bao1tqEhNfitBUV-14" target="IQ5l-Bao1tqEhNfitBUV-16">
          <mxGeometry relative="1" as="geometry" />
        </mxCell>
        <mxCell id="IQ5l-Bao1tqEhNfitBUV-14" value="AssociateAccountDialogComponent" style="swimlane;rounded=0;shadow=0;fontSize=14;strokeColor=#006658;fillColor=#21C0A5;html=1;fontColor=#5C5C5C;" parent="B1F1coWtEtCeFV_Itmko-12" vertex="1">
          <mxGeometry x="220" y="330" width="270" height="200" as="geometry">
            <mxRectangle x="90" y="30" width="190" height="23" as="alternateBounds" />
          </mxGeometry>
        </mxCell>
        <mxCell id="IQ5l-Bao1tqEhNfitBUV-15" value="CoreCompanyApiService&#xa;MatDialogRef&lt;AssociateAccountDialogComponent&gt;&#xa;AssociateAccountService&#xa;TranslateService&#xa;Translations&#xa;MAT_DIALOG_DATA" style="text;html=1;strokeColor=none;fillColor=none;align=left;verticalAlign=middle;whiteSpace=wrap;rounded=0;shadow=0;fontSize=14;labelPosition=center;verticalLabelPosition=middle;fontColor=#5C5C5C;" parent="IQ5l-Bao1tqEhNfitBUV-14" vertex="1">
          <mxGeometry x="10" y="29" width="250" height="160" as="geometry" />
        </mxCell>
        <mxCell id="B1F1coWtEtCeFV_Itmko-33" value="import" style="edgeStyle=orthogonalEdgeStyle;rounded=0;orthogonalLoop=1;jettySize=auto;html=1;entryX=1;entryY=0.5;entryDx=0;entryDy=0;fontSize=14;" edge="1" parent="qydygmRBUWw_LVg6zkOr-1" source="B1F1coWtEtCeFV_Itmko-15" target="B1F1coWtEtCeFV_Itmko-9">
          <mxGeometry relative="1" as="geometry">
            <Array as="points">
              <mxPoint x="1160" y="465" />
              <mxPoint x="1160" y="945" />
            </Array>
          </mxGeometry>
        </mxCell>
        <mxCell id="B1F1coWtEtCeFV_Itmko-34" value="import" style="edgeStyle=orthogonalEdgeStyle;rounded=0;orthogonalLoop=1;jettySize=auto;html=1;exitX=0;exitY=0.75;exitDx=0;exitDy=0;entryX=1;entryY=0.5;entryDx=0;entryDy=0;fontSize=14;" edge="1" parent="qydygmRBUWw_LVg6zkOr-1" source="B1F1coWtEtCeFV_Itmko-15" target="B1F1coWtEtCeFV_Itmko-12">
          <mxGeometry relative="1" as="geometry" />
        </mxCell>
        <mxCell id="B1F1coWtEtCeFV_Itmko-15" value="SearchComponentModule" style="swimlane;fontSize=14;startSize=23;" vertex="1" parent="qydygmRBUWw_LVg6zkOr-1">
          <mxGeometry x="1670" y="290" width="330" height="350" as="geometry" />
        </mxCell>
        <mxCell id="IQ5l-Bao1tqEhNfitBUV-1" value="SearchComponent" style="swimlane;rounded=0;shadow=0;fontSize=14;strokeColor=#006658;fillColor=#21C0A5;html=1;fontColor=#5C5C5C;" parent="B1F1coWtEtCeFV_Itmko-15" vertex="1">
          <mxGeometry x="65" y="75" width="200" height="200" as="geometry">
            <mxRectangle x="390" y="250" width="160" height="23" as="alternateBounds" />
          </mxGeometry>
        </mxCell>
        <mxCell id="B1F1coWtEtCeFV_Itmko-18" value="CreateCompanyModule" style="swimlane;fontSize=14;" vertex="1" parent="qydygmRBUWw_LVg6zkOr-1">
          <mxGeometry x="630" y="340" width="330" height="350" as="geometry" />
        </mxCell>
        <mxCell id="IQ5l-Bao1tqEhNfitBUV-10" value="CreateCompanyComponent" style="swimlane;rounded=0;shadow=0;fontSize=14;strokeColor=#006658;fillColor=#21C0A5;html=1;fontColor=#5C5C5C;" parent="B1F1coWtEtCeFV_Itmko-18" vertex="1">
          <mxGeometry x="65" y="75" width="200" height="200" as="geometry">
            <mxRectangle x="90" y="30" width="190" height="23" as="alternateBounds" />
          </mxGeometry>
        </mxCell>
        <mxCell id="IQ5l-Bao1tqEhNfitBUV-11" value="CoreCompanyApiService,&#xa;PreviousRouteService,&#xa;Router,&#xa;I18nService,&#xa;TranslateService,&#xa;Translations" style="text;html=1;strokeColor=none;fillColor=none;align=left;verticalAlign=middle;whiteSpace=wrap;rounded=0;shadow=0;fontSize=14;labelPosition=center;verticalLabelPosition=middle;fontColor=#5C5C5C;" parent="IQ5l-Bao1tqEhNfitBUV-10" vertex="1">
          <mxGeometry x="10" y="29" width="180" height="160" as="geometry" />
        </mxCell>
        <mxCell id="B1F1coWtEtCeFV_Itmko-30" value="create-company/" style="edgeStyle=orthogonalEdgeStyle;rounded=0;orthogonalLoop=1;jettySize=auto;html=1;exitX=0.5;exitY=0;exitDx=0;exitDy=0;entryX=0;entryY=0.5;entryDx=0;entryDy=0;fontSize=14;" edge="1" parent="qydygmRBUWw_LVg6zkOr-1" source="B1F1coWtEtCeFV_Itmko-28" target="B1F1coWtEtCeFV_Itmko-18">
          <mxGeometry relative="1" as="geometry" />
        </mxCell>
        <mxCell id="B1F1coWtEtCeFV_Itmko-31" value="companies/" style="edgeStyle=orthogonalEdgeStyle;rounded=0;orthogonalLoop=1;jettySize=auto;html=1;entryX=0;entryY=0.5;entryDx=0;entryDy=0;fontSize=14;" edge="1" parent="qydygmRBUWw_LVg6zkOr-1" source="B1F1coWtEtCeFV_Itmko-28" target="B1F1coWtEtCeFV_Itmko-9">
          <mxGeometry relative="1" as="geometry" />
        </mxCell>
        <mxCell id="B1F1coWtEtCeFV_Itmko-32" value="company/:id" style="edgeStyle=orthogonalEdgeStyle;rounded=0;orthogonalLoop=1;jettySize=auto;html=1;exitX=0.5;exitY=1;exitDx=0;exitDy=0;entryX=0;entryY=0.5;entryDx=0;entryDy=0;fontSize=14;" edge="1" parent="qydygmRBUWw_LVg6zkOr-1" source="B1F1coWtEtCeFV_Itmko-28" target="B1F1coWtEtCeFV_Itmko-12">
          <mxGeometry relative="1" as="geometry" />
        </mxCell>
        <mxCell id="B1F1coWtEtCeFV_Itmko-28" value="&amp;lt;router-outlet/&amp;gt;" style="rounded=1;whiteSpace=wrap;html=1;fontSize=14;" vertex="1" parent="qydygmRBUWw_LVg6zkOr-1">
          <mxGeometry x="365" y="915" width="120" height="60" as="geometry" />
        </mxCell>
      </root>
    </mxGraphModel>
  </diagram>
</mxfile>
